<?xml version="1.0" encoding="UTF-8"?><svg id="Layer_1" xmlns="http://www.w3.org/2000/svg" viewBox="0 0 2027.19 862.98"><path d="M1821.01,331.29l15.57,54.61h.53l15.57-54.61h54.88l-40.89,92.87,44.06,95.51h-54.88l-18.73-56.72h-.53l-18.73,56.72h-54.08l43.79-95.51-41.42-92.87h54.88Z" fill="#08b"/><path d="M794.71,331.29c9.32,0,17.28,1.23,23.88,3.69,6.59,2.47,11.96,5.94,16.09,10.42,4.13,4.49,7.12,9.81,8.97,15.96,1.85,6.16,2.77,12.84,2.77,20.05,0,12.66-2.55,22.87-7.65,30.6-5.1,7.74-13.28,12.49-24.53,14.25v.53c11.78,1.05,19.87,5.19,24.27,12.4,4.4,7.21,6.6,17.15,6.6,29.81v23.74c0,2.64.08,5.14.26,7.52.17,2.37.44,4.53.79,6.46.35,1.94.79,3.43,1.32,4.48.7,1.06,1.41,2.07,2.11,3.03.7.97,1.85,1.9,3.43,2.77v2.64h-52.24c-1.23-2.46-2.15-5.36-2.77-8.71-.62-3.34-1.06-6.68-1.32-10.03-.26-3.34-.44-6.55-.53-9.63-.09-3.08-.13-5.58-.13-7.52v-12.66c0-5.28-.26-9.67-.79-13.19-.53-3.51-1.45-6.28-2.77-8.31-1.32-2.02-2.99-3.43-5.01-4.22-2.03-.79-4.53-1.19-7.52-1.19h-12.93v75.45h-49.07v-188.38h76.77ZM776.77,410.96c7.03,0,12.22-2.07,15.56-6.2,3.34-4.13,5.01-9.54,5.01-16.23,0-7.91-1.63-13.54-4.88-16.88-3.26-3.34-8.57-5.01-15.96-5.01h-9.5v44.32h9.76Z" fill="#003057"/><path d="M867.26,380.49c2.28-12.4,6.07-22.51,11.35-30.34,5.28-7.82,12.22-13.54,20.84-17.15,8.62-3.6,19.17-5.41,31.66-5.41s23.04,1.81,31.66,5.41c8.62,3.6,15.57,9.32,20.84,17.15,5.28,7.83,9.05,17.94,11.34,30.34,2.28,12.4,3.43,27.4,3.43,44.98s-1.15,32.58-3.43,44.98c-2.29,12.4-6.07,22.52-11.34,30.34-5.28,7.83-12.23,13.41-20.84,16.75-8.62,3.34-19.17,5.01-31.66,5.01s-23.04-1.68-31.66-5.01c-8.62-3.34-15.56-8.93-20.84-16.75-5.28-7.82-9.06-17.94-11.35-30.34-2.29-12.4-3.43-27.39-3.43-44.98s1.14-32.58,3.43-44.98ZM915.01,457c.35,8.36,1.1,15,2.24,19.92,1.14,4.92,2.81,8.35,5.01,10.29,2.19,1.94,5.14,2.9,8.84,2.9s6.64-.96,8.84-2.9c2.19-1.94,3.87-5.37,5.01-10.29,1.14-4.92,1.89-11.56,2.24-19.92.35-8.35.53-18.86.53-31.53s-.18-23.17-.53-31.53c-.35-8.35-1.1-15-2.24-19.92-1.15-4.92-2.82-8.35-5.01-10.29-2.2-1.93-5.15-2.9-8.84-2.9s-6.64.97-8.84,2.9c-2.2,1.94-3.87,5.37-5.01,10.29-1.15,4.92-1.89,11.57-2.24,19.92-.35,8.35-.53,18.86-.53,31.53s.17,23.18.53,31.53Z" fill="#003057"/><path d="M1013.95,380.49c2.28-12.4,6.07-22.51,11.35-30.34,5.28-7.82,12.22-13.54,20.84-17.15,8.62-3.6,19.17-5.41,31.66-5.41s23.04,1.81,31.66,5.41c8.62,3.6,15.57,9.32,20.84,17.15,5.28,7.83,9.05,17.94,11.34,30.34,2.28,12.4,3.43,27.4,3.43,44.98s-1.15,32.58-3.43,44.98c-2.29,12.4-6.07,22.52-11.34,30.34-5.28,7.83-12.23,13.41-20.84,16.75-8.62,3.34-19.17,5.01-31.66,5.01s-23.04-1.68-31.66-5.01c-8.62-3.34-15.56-8.93-20.84-16.75-5.28-7.82-9.06-17.94-11.35-30.34-2.29-12.4-3.43-27.39-3.43-44.98s1.14-32.58,3.43-44.98ZM1061.7,457c.35,8.36,1.1,15,2.24,19.92,1.14,4.92,2.81,8.35,5.01,10.29,2.19,1.94,5.14,2.9,8.84,2.9s6.64-.96,8.84-2.9c2.19-1.94,3.87-5.37,5.01-10.29,1.14-4.92,1.89-11.56,2.24-19.92.35-8.35.53-18.86.53-31.53s-.18-23.17-.53-31.53c-.35-8.35-1.1-15-2.24-19.92-1.15-4.92-2.82-8.35-5.01-10.29-2.2-1.93-5.15-2.9-8.84-2.9s-6.64.97-8.84,2.9c-2.2,1.94-3.87,5.37-5.01,10.29-1.15,4.92-1.89,11.57-2.24,19.92-.35,8.35-.53,18.86-.53,31.53s.17,23.18.53,31.53Z" fill="#003057"/><path d="M1274.36,331.29v40.1h-62.53v32.19h58.57v38.52h-58.57v77.57h-49.07v-188.38h111.6Z" fill="#003057"/><path d="M1357.99,331.29l19.79,111.6h.53l19.79-111.6h70.18v188.38h-45.91v-140.36h-.53l-26.12,140.36h-35.35l-26.12-140.36h-.53v140.36h-45.91v-188.38h70.18Z" fill="#08b"/><path d="M1582.24,331.29l45.9,188.38h-52.24l-5.01-32.98h-39.05l-5.01,32.98h-51.44l45.11-188.38h61.74ZM1551.11,369.81l-13.45,79.94h27.44l-13.46-79.94h-.53Z" fill="#08b"/><path d="M1679.6,331.29l15.57,54.61h.53l15.57-54.61h54.88l-40.89,92.87,44.06,95.51h-54.88l-18.73-56.72h-.53l-18.73,56.72h-54.08l43.79-95.51-41.42-92.87h54.88Z" fill="#08b"/><polygon points="718.37 542.64 1900.98 542.64 1900.98 676.95 904.23 675.63 718.37 542.64" fill="#cc6c27"/><path d="M950.55,647.25l-10.29-30.65h-5.09v30.65h-16.74v-76.96h24.62c7.45,0,13.24,1.94,17.35,5.82,4.12,3.87,6.19,9.66,6.19,17.34,0,2.83-.33,5.36-.97,7.61-.65,2.25-1.5,4.17-2.55,5.76-1.05,1.59-2.22,2.9-3.52,3.91-1.3,1.01-2.57,1.74-3.79,2.17l13.12,34.35h-18.32ZM949.51,594.42c0-1.96-.27-3.55-.81-4.78-.54-1.23-1.25-2.21-2.12-2.94-.87-.72-1.83-1.21-2.88-1.47-1.05-.25-2.08-.38-3.1-.38h-5.44v19.46h5.11c2.47,0,4.62-.78,6.47-2.34,1.85-1.56,2.77-4.08,2.77-7.55Z" fill="#fff"/><path d="M1033.22,608.55c0,6.09-.69,11.65-2.07,16.69-1.38,5.04-3.33,9.33-5.87,12.88-2.54,3.55-5.64,6.31-9.3,8.26-3.66,1.96-7.77,2.94-12.34,2.94s-8.68-.98-12.34-2.94c-3.66-1.96-6.76-4.71-9.3-8.26-2.54-3.55-4.49-7.84-5.87-12.88-1.38-5.04-2.07-10.6-2.07-16.69s.67-11.61,2.01-16.58c1.34-4.96,3.28-9.21,5.82-12.72,2.54-3.51,5.64-6.23,9.3-8.15,3.66-1.92,7.81-2.88,12.45-2.88s8.68.96,12.34,2.88c3.66,1.92,6.76,4.64,9.3,8.15,2.54,3.51,4.49,7.76,5.87,12.72,1.37,4.96,2.07,10.49,2.07,16.58ZM1015.39,608.55c0-3.33-.25-6.43-.76-9.29-.51-2.87-1.25-5.35-2.23-7.45-.98-2.1-2.19-3.75-3.64-4.95-1.45-1.19-3.15-1.79-5.11-1.79s-3.68.6-5.16,1.79c-1.49,1.2-2.72,2.85-3.7,4.95-.98,2.1-1.7,4.58-2.17,7.45-.47,2.86-.71,5.96-.71,9.29s.23,6.46.71,9.35c.47,2.9,1.19,5.4,2.17,7.5.98,2.11,2.21,3.77,3.7,5,1.48,1.23,3.21,1.85,5.16,1.85s3.66-.61,5.11-1.85c1.45-1.23,2.67-2.9,3.64-5,.98-2.1,1.72-4.6,2.23-7.5.51-2.9.76-6.02.76-9.35Z" fill="#fff"/><path d="M1099.75,608.55c0,6.09-.69,11.65-2.07,16.69-1.38,5.04-3.33,9.33-5.87,12.88-2.54,3.55-5.64,6.31-9.3,8.26-3.66,1.96-7.77,2.94-12.34,2.94s-8.68-.98-12.34-2.94c-3.66-1.96-6.76-4.71-9.3-8.26-2.54-3.55-4.49-7.84-5.87-12.88-1.38-5.04-2.07-10.6-2.07-16.69s.67-11.61,2.01-16.58c1.34-4.96,3.28-9.21,5.82-12.72,2.54-3.51,5.64-6.23,9.3-8.15,3.66-1.92,7.81-2.88,12.45-2.88s8.68.96,12.34,2.88c3.66,1.92,6.76,4.64,9.3,8.15,2.54,3.51,4.49,7.76,5.87,12.72,1.37,4.96,2.07,10.49,2.07,16.58ZM1081.92,608.55c0-3.33-.25-6.43-.76-9.29-.51-2.87-1.25-5.35-2.23-7.45-.98-2.1-2.19-3.75-3.64-4.95-1.45-1.19-3.15-1.79-5.11-1.79s-3.68.6-5.16,1.79c-1.49,1.2-2.72,2.85-3.7,4.95-.98,2.1-1.7,4.58-2.17,7.45-.47,2.86-.71,5.96-.71,9.29s.23,6.46.71,9.35c.47,2.9,1.19,5.4,2.17,7.5.98,2.11,2.21,3.77,3.7,5,1.48,1.23,3.21,1.85,5.16,1.85s3.66-.61,5.11-1.85c1.45-1.23,2.67-2.9,3.64-5,.98-2.1,1.72-4.6,2.23-7.5.51-2.9.76-6.02.76-9.35Z" fill="#fff"/><path d="M1127.79,585.94v15.77h18.37v14.89h-18.26v30.65h-17.61v-76.96h37.5v15.65h-20Z" fill="#fff"/><path d="M1211.11,647.25l-10.29-30.65h-5.09v30.65h-16.74v-76.96h24.62c7.45,0,13.24,1.94,17.35,5.82,4.12,3.87,6.19,9.66,6.19,17.34,0,2.83-.33,5.36-.97,7.61-.65,2.25-1.5,4.17-2.55,5.76-1.05,1.59-2.22,2.9-3.52,3.91-1.3,1.01-2.57,1.74-3.79,2.17l13.12,34.35h-18.32ZM1210.08,594.42c0-1.96-.27-3.55-.81-4.78-.54-1.23-1.25-2.21-2.12-2.94-.87-.72-1.83-1.21-2.88-1.47-1.05-.25-2.08-.38-3.1-.38h-5.44v19.46h5.11c2.47,0,4.62-.78,6.47-2.34,1.85-1.56,2.77-4.08,2.77-7.55Z" fill="#fff"/><path d="M1237.8,647.25v-76.96h37.18v15.33h-20.55v15.11h18.92v14.35h-18.92v16.52h21.85v15.66h-38.48Z" fill="#fff"/><path d="M1318.36,588.66c-1.31-1.52-2.83-2.7-4.57-3.53-1.74-.83-3.55-1.25-5.44-1.25s-3.71.61-5.27,1.85c-1.56,1.24-2.34,3.27-2.34,6.1,0,2.4.8,4.26,2.39,5.61,1.59,1.34,3.95,2.82,7.07,4.41,1.75.87,3.59,1.91,5.52,3.11,1.94,1.2,3.7,2.67,5.31,4.41,1.6,1.74,2.94,3.83,3.99,6.26,1.05,2.44,1.59,5.32,1.59,8.66,0,4.14-.66,7.79-1.97,10.95-1.31,3.16-3.08,5.77-5.31,7.84-2.23,2.07-4.79,3.63-7.7,4.68-2.92,1.05-5.93,1.58-9.05,1.58-4.64,0-8.86-.87-12.66-2.61-3.8-1.74-6.87-3.76-9.19-6.09l8.91-13.05c1.67,1.74,3.59,3.14,5.76,4.18,2.18,1.05,4.38,1.58,6.64,1.58,2.1,0,3.87-.69,5.32-2.07,1.45-1.37,2.18-3.3,2.18-5.76s-.87-4.55-2.61-6.03c-1.74-1.49-4.27-3.06-7.61-4.73-2.1-1.01-4.07-2.14-5.93-3.37-1.85-1.23-3.47-2.72-4.89-4.45-1.41-1.74-2.52-3.77-3.32-6.09-.79-2.32-1.19-5.07-1.19-8.26,0-4.28.71-7.95,2.12-11.04,1.41-3.08,3.26-5.6,5.54-7.55,2.28-1.96,4.82-3.4,7.61-4.35,2.79-.94,5.6-1.41,8.43-1.41,4.2,0,7.97.68,11.3,2.05,3.33,1.37,6.13,3.24,8.37,5.62l-9.02,12.77Z" fill="#fff"/><path d="M1360.2,585.07v62.18h-17.06v-62.18h-14.13v-14.78h45.33v14.78h-14.13Z" fill="#fff"/><path d="M1435.76,608.55c0,6.09-.69,11.65-2.07,16.69-1.38,5.04-3.33,9.33-5.87,12.88-2.54,3.55-5.64,6.31-9.3,8.26-3.66,1.96-7.77,2.94-12.34,2.94s-8.68-.98-12.34-2.94c-3.66-1.96-6.76-4.71-9.3-8.26-2.54-3.55-4.49-7.84-5.87-12.88-1.38-5.04-2.07-10.6-2.07-16.69s.67-11.61,2.01-16.58c1.34-4.96,3.28-9.21,5.82-12.72,2.54-3.51,5.64-6.23,9.3-8.15,3.66-1.92,7.81-2.88,12.45-2.88s8.68.96,12.34,2.88c3.66,1.92,6.76,4.64,9.3,8.15,2.54,3.51,4.49,7.76,5.87,12.72,1.37,4.96,2.07,10.49,2.07,16.58ZM1417.93,608.55c0-3.33-.25-6.43-.76-9.29-.51-2.87-1.25-5.35-2.23-7.45-.98-2.1-2.19-3.75-3.64-4.95-1.45-1.19-3.15-1.79-5.11-1.79s-3.68.6-5.16,1.79c-1.49,1.2-2.72,2.85-3.7,4.95s-1.7,4.58-2.17,7.45c-.47,2.86-.71,5.96-.71,9.29s.23,6.46.71,9.35c.47,2.9,1.19,5.4,2.17,7.5.98,2.11,2.21,3.77,3.7,5,1.48,1.23,3.21,1.85,5.16,1.85s3.66-.61,5.11-1.85c1.45-1.23,2.67-2.9,3.64-5,.98-2.1,1.72-4.6,2.23-7.5.51-2.9.76-6.02.76-9.35Z" fill="#fff"/><path d="M1478.43,647.25l-10.29-30.65h-5.09v30.65h-16.74v-76.96h24.62c7.45,0,13.24,1.94,17.35,5.82,4.12,3.87,6.19,9.66,6.19,17.34,0,2.83-.33,5.36-.97,7.61-.65,2.25-1.5,4.17-2.55,5.76-1.05,1.59-2.22,2.9-3.52,3.91-1.3,1.01-2.57,1.74-3.79,2.17l13.12,34.35h-18.32ZM1477.39,594.42c0-1.96-.27-3.55-.81-4.78-.54-1.23-1.25-2.21-2.12-2.94-.87-.72-1.83-1.21-2.88-1.47-1.05-.25-2.08-.38-3.1-.38h-5.44v19.46h5.11c2.47,0,4.62-.78,6.47-2.34,1.85-1.56,2.77-4.08,2.77-7.55Z" fill="#fff"/><path d="M1539.25,647.25l-3.16-14.02h-17.28l-3.15,14.02h-17.39l18.7-76.96h21.85l18.59,76.96h-18.15ZM1527.73,587.03h-.43l-6.53,32.72h13.16l-6.2-32.72Z" fill="#fff"/><path d="M1586.42,585.07v62.18h-17.06v-62.18h-14.13v-14.78h45.33v14.78h-14.13Z" fill="#fff"/><path d="M1607.3,647.25v-76.96h17.5v76.96h-17.5Z" fill="#fff"/><path d="M1694.48,608.55c0,6.09-.69,11.65-2.07,16.69-1.38,5.04-3.33,9.33-5.87,12.88-2.54,3.55-5.64,6.31-9.3,8.26-3.66,1.96-7.77,2.94-12.34,2.94s-8.68-.98-12.34-2.94c-3.66-1.96-6.76-4.71-9.3-8.26s-4.49-7.84-5.87-12.88c-1.38-5.04-2.07-10.6-2.07-16.69s.67-11.61,2.01-16.58c1.34-4.96,3.28-9.21,5.82-12.72,2.54-3.51,5.64-6.23,9.3-8.15,3.66-1.92,7.81-2.88,12.45-2.88s8.68.96,12.34,2.88c3.66,1.92,6.76,4.64,9.3,8.15,2.54,3.51,4.49,7.76,5.87,12.72,1.37,4.96,2.07,10.49,2.07,16.58ZM1676.65,608.55c0-3.33-.25-6.43-.76-9.29-.51-2.87-1.25-5.35-2.23-7.45s-2.19-3.75-3.64-4.95c-1.45-1.19-3.15-1.79-5.11-1.79s-3.68.6-5.16,1.79c-1.49,1.2-2.72,2.85-3.7,4.95-.98,2.1-1.7,4.58-2.17,7.45-.47,2.86-.71,5.96-.71,9.29s.23,6.46.71,9.35c.47,2.9,1.19,5.4,2.17,7.5.98,2.11,2.21,3.77,3.7,5,1.48,1.23,3.21,1.85,5.16,1.85s3.66-.61,5.11-1.85c1.45-1.23,2.67-2.9,3.64-5,.98-2.1,1.72-4.6,2.23-7.5.51-2.9.76-6.02.76-9.35Z" fill="#fff"/><path d="M1738.29,647.25l-17.83-46.85h-.33l.44,46.85h-15.55v-76.96h19.13l17.72,47.5h.33l-.33-47.5h15v76.96h-18.59Z" fill="#fff"/><path d="M599,485.66s-66.9-20.72-93.38-61.93c0,0,10.24,23.65,25.81,38.11,15.57,14.46,53.79,34.9,53.79,34.9,0,0,11.87,109.39,87.98,217.11-22.04-39.74-66.89-131.11-74.2-228.2Z" fill="#fff"/><path d="M505.61,79.03c-214.91,0-389.13,174.22-389.13,389.13h.02l-.02-.12c5.18.09,10.26.11,15.34.12h7.73c49.36-.28,93.87-4.39,133.99-11.24v-20.79c0-114.9,93.48-208.38,208.38-208.38,42.98,0,84.61,13.59,119.27,37.74,29.96-48.96,70.42-90.82,118.28-122.37-61.38-40.47-134.85-64.09-213.87-64.09Z" fill="#08b"/><path d="M116.48,468.16h.02s-.01,0-.02,0Z" fill="#262c48"/><path d="M594.64,224.26s-114.19-64.14-228.39,3.87c-114.19,68.01-124.04,170.39-124.04,170.39,0,0-38.71,49.49-125.28,69.51,5.02.09,9.96.11,14.89.12h7.73c49.36-.28,93.87-4.39,133.99-11.24v-20.79c0-114.9,93.48-208.38,208.38-208.38,42.98,0,84.61,13.59,119.27,37.74,29.96-48.96,70.42-90.82,118.28-122.37,0,0-78.57,30.91-124.84,81.14Z" fill="#003057"/><path d="M380.99,536.5l13.12-8.75,13.12,8.75,225.73,150.52v-120.07c8.36,0,24.86-5.79,24.86-5.79l-58.77-201.47,2.05-32.93c-28.96-38.9-75.3-64.11-127.52-64.11-87.75,0-158.88,71.13-158.88,158.88v63.89s-.06,38.23-7.57,66.7c-3.6,13.63-10.37,30.6-16.47,44.61l90.34-60.24Z" fill="#003057"/><path d="M375.89,533.73l13.36-8.91,13.36,8.91,229.89,153.3v-122.28c8.52,0,25.32-5.9,25.32-5.9l-59.86-205.18,28.12-17.67c-29.49-39.62-102.72-81.16-155.91-81.16-89.36,0-161.81,72.44-161.81,161.81v65.07s-.06,38.93-7.71,67.93c-3.66,13.88-10.57,31.16-16.77,45.43l92.01-61.35Z" fill="#08b"/><path d="M598.11,354.17h-30.33l1.51-24.28c-25.03-28.7-60.61-44.95-99.12-44.95-72.63,0-131.71,59.09-131.71,131.71v65.07c0,1.79-.16,43.24-8.71,75.61-.73,2.79-1.62,5.78-2.6,8.9l48.74-32.5,13.36-8.91,13.36,8.91,229.89,153.3v-122.28c8.52,0,25.32-5.9,25.32-5.9l-59.71-204.68Z" fill="#003057"/><path d="M632.95,687.03l40.24,26.84c-22.04-39.74-66.89-131.11-74.2-228.2,0,0-66.9-20.72-93.38-61.93,0,0,80.83,17.33,114.28,28.48,0,0,1.39,71.94,12.54,93.11,0,0,7.12,5.92,12.71,9.59,5.59,3.67,12.65,6.26,12.65,6.26-.36-2.3-5.89-24.23-8.9-53.61-1.71-16.66-1.54-35.86-1.8-54.86-.84-61.12,0-125.93,0-125.93h-85.37c-2.3,0-37.18.05-39.46.14-80.24,3.25-127.89,65.82-127.98,130.67v70.17" fill="#08b"/><path d="M516.8,336c44.49,0,100.17,0,130.21,0,.06-5.87.1-9.23.1-9.23h-85.37c-2.3,0-37.18.05-39.46.14-48.57,1.97-85.17,25.68-106.53,58.47.64-.85,37.38-49.38,101.06-49.38Z" fill="#fff"/><rect x="393.37" y="700.57" width="26.8" height="33.75" fill="#003057"/><rect x="350.68" y="700.57" width="26.8" height="33.75" fill="#003057"/><rect x="393.37" y="750.2" width="26.8" height="33.75" fill="#003057"/><rect x="350.68" y="750.2" width="26.8" height="33.75" fill="#003057"/><polygon points="394.11 619.91 304.6 679.69 394.3 644.02 604.16 783.95 640.12 783.95 394.11 619.91" fill="#08b"/><polygon points="672.08 783.95 746.35 783.95 739.58 779.44 397.38 551.25 394.1 549.07 390.83 551.25 179.19 692.38 162.95 703.2 182.47 703.2 235.67 703.2 237.46 703.2 238.96 702.21 394.11 598.6 672.08 783.95" fill="#9ea6b4"/><path d="M1859,267.74h-7.59v-2.74h18.46v2.74h-7.62v22.2h-3.26v-22.2Z"/><path d="M1893.67,278.99c-.19-3.48-.41-7.66-.37-10.77h-.11c-.85,2.92-1.89,6.03-3.15,9.47l-4.4,12.1h-2.44l-4.03-11.88c-1.18-3.52-2.18-6.73-2.89-9.7h-.07c-.07,3.11-.26,7.29-.48,11.03l-.67,10.69h-3.07l1.74-24.94h4.11l4.26,12.06c1.04,3.07,1.89,5.81,2.52,8.4h.11c.63-2.52,1.52-5.25,2.63-8.4l4.44-12.06h4.11l1.55,24.94h-3.14l-.63-10.95Z"/></svg>